Coordinates
version=1
nRows=49
nColumns=12
inDegrees=yes

Units are S.I. units (second, meters, Newtons, ...)
Angles are in degrees

endheader
time	SC_y	SC_z	SC_x	AC_y	AC_z	AC_x	GH_y	GH_z	GH_yy	EL_x	PS_y
       0.0              -36.72          20.06          70.11          30.66          8.591          9.982         -51.46          43.96         -35.01          103.2          60.52
   0.02561              -36.72          20.06          70.11          30.66          8.589          9.982         -51.47          43.97         -34.99          103.2          60.52
   0.05122              -36.72          20.06          70.11          30.66          8.586          9.982         -51.49          43.97         -34.97          103.2          60.51
   0.07682              -36.72          20.05          70.11          30.66          8.583          9.982         -51.51          43.97         -34.95          103.2          60.51
    0.1024              -36.72          20.05          70.11          30.66          8.581          9.981         -51.53          43.98         -34.93          103.2          60.51
     0.128              -36.72          20.05           70.1          30.66          8.578          9.981         -51.55          43.99          -34.9          103.2          60.51
    0.1536              -36.72          20.05           70.1          30.66          8.574          9.981         -51.57          43.99         -34.88          103.2          60.51
    0.1793              -36.72          20.05           70.1          30.66          8.571           9.98         -51.59           44.0         -34.85          103.2          60.51
    0.2049              -36.72          20.05           70.1          30.66          8.567           9.98         -51.62           44.0         -34.82          103.2          60.51
    0.2305              -36.72          20.04           70.1          30.66          8.563          9.979         -51.65          44.01         -34.79          103.1          60.51
    0.2561              -36.72          20.04           70.1          30.67          8.559          9.979         -51.68          44.02         -34.76          103.1           60.5
    0.2817              -36.72          20.04           70.1          30.67          8.554          9.979         -51.71          44.03         -34.72          103.1           60.5
    0.3073              -36.72          20.04           70.1          30.67          8.549          9.978         -51.74          44.04         -34.68          103.1           60.5
    0.3329              -36.72          20.03           70.1          30.67          8.544          9.977         -51.78          44.05         -34.64          103.1           60.5
    0.3585              -36.72          20.03           70.1          30.67          8.538          9.977         -51.82          44.06         -34.59          103.0           60.5
    0.3841              -36.72          20.03          70.09          30.67          8.532          9.976         -51.86          44.07         -34.54          103.0          60.49
    0.4097              -36.72          20.03          70.09          30.68          8.525          9.975         -51.91          44.08         -34.49          103.0          60.49
    0.4353              -36.72          20.02          70.09          30.68          8.517          9.975         -51.96          44.09         -34.43          103.0          60.49
    0.4609              -36.72          20.02          70.09          30.68          8.509          9.974         -52.02          44.11         -34.36          102.9          60.49
    0.4865              -36.72          20.01          70.09          30.68            8.5          9.973         -52.08          44.13         -34.29          102.9          60.48
    0.5122              -36.72          20.01          70.08          30.69          8.491          9.972         -52.15          44.14         -34.21          102.9          60.48
    0.5378              -36.72           20.0          70.08          30.69           8.48          9.971         -52.22          44.16         -34.13          102.8          60.48
    0.5634              -36.72           20.0          70.08          30.69          8.468           9.97          -52.3          44.18         -34.03          102.8          60.47
     0.589              -36.71          19.99          70.08           30.7          8.455          9.968         -52.39          44.21         -33.93          102.7          60.47
    0.6146              -36.71          19.98          70.07           30.7           8.44          9.967         -52.49          44.24         -33.81          102.7          60.46
    0.6402              -36.71          19.98          70.07          30.71          8.424          9.965          -52.6          44.27         -33.68          102.6          60.45
    0.6658              -36.71          19.97          70.07          30.71          8.405          9.963         -52.73           44.3         -33.54          102.5          60.45
    0.6914              -36.71          19.96          70.06          30.72          8.385          9.961         -52.87          44.34         -33.37          102.4          60.44
     0.717              -36.71          19.95          70.06          30.73          8.361          9.958         -53.03          44.38         -33.19          102.3          60.43
    0.7426              -36.71          19.93          70.05          30.74          8.335          9.956         -53.21          44.43         -32.98          102.2          60.42
    0.7682              -36.71          19.92          70.04          30.75          8.305          9.952         -53.42          44.48         -32.74          102.1          60.41
    0.7938               -36.7           19.9          70.03          30.76           8.27          9.949         -53.66          44.54         -32.47          102.0           60.4
    0.8194               -36.7          19.88          70.03          30.77           8.23          9.945         -53.93          44.62         -32.15          101.8          60.38
    0.8451               -36.7          19.86          70.01          30.79          8.183           9.94         -54.25           44.7         -31.78          101.6          60.37
    0.8707              -36.69          19.83           70.0           30.8          8.129          9.934         -54.63           44.8         -31.35          101.4          60.35
    0.8963              -36.69           19.8          69.99          30.82          8.065          9.927         -55.07          44.92         -30.84          101.2          60.32
    0.9219              -36.69          19.76          69.97          30.85          7.988          9.919         -55.59          45.05         -30.24          100.9           60.3
    0.9475              -36.68          19.72          69.95          30.88          7.897           9.91         -56.22          45.22         -29.51          100.5          60.26
    0.9731              -36.67          19.67          69.92          30.91          7.786          9.898         -56.98          45.42         -28.63          100.1          60.22
    0.9987              -36.67           19.6          69.89          30.95          7.651          9.884          -57.9          45.67         -27.56          99.54          60.17
     1.024              -36.66          19.52          69.86          31.01          7.484          9.867         -59.05          45.97         -26.24          98.88          60.11
      1.05              -36.64          19.42          69.81          31.07          7.276          9.845         -60.47          46.35         -24.59          98.06          60.03
     1.076              -36.63          19.29          69.75          31.16          7.014          9.818         -62.27          46.82         -22.52          97.03          59.94
     1.101              -36.61          19.13          69.67          31.26          6.681          9.783         -64.56          47.43         -19.88          95.72          59.82
     1.127              -36.58          18.92          69.58           31.4          6.255          9.738         -67.48           48.2          -16.5          94.03          59.66
     1.152              -36.55          18.66          69.45          31.57          5.708          9.681         -71.23          49.19         -12.17          91.88          59.46
     1.178              -36.51          18.32          69.29           31.8          5.009          9.608         -76.03          50.46         -6.631          89.12           59.2
     1.204              -36.46          17.89           69.1          32.08          4.131          9.516         -82.05          52.06         0.3302          85.65          58.88
     1.229              -36.39          17.37          68.85          32.42           3.06          9.404          -89.4           54.0          8.814          81.43          58.49
